<svg width="21" height="31" viewBox="0 0 21 31" fill="none" xmlns="http://www.w3.org/2000/svg">
<path fill-rule="evenodd" clip-rule="evenodd" d="M6.91102 7.42249H8.27534C9.52679 7.42249 10.9532 7.49077 12.0327 8.22663C12.5599 8.60318 13.4444 9.47491 13.4444 11.0582C13.4444 12.2283 12.9273 13.2774 12.0732 13.932C10.9782 14.7269 9.67666 14.6813 8.63082 14.6813H6.91102V7.42249ZM9.97671 19.9516C13.2081 19.9516 15.7375 19.0196 17.494 17.2636C19.6547 15.1073 19.9777 12.1411 19.9777 10.5773C19.9777 8.90405 19.5811 5.64037 16.9209 3.27729C14.7405 1.36661 12.414 0.88916 9.13218 0.88916H0.377686V29.9262H7.03627V19.9516H9.97671Z" fill="#6B7B84"/>
<path d="M6.91102 7.42249V7.17249H6.66102V7.42249H6.91102ZM12.0327 8.22663L12.1781 8.02315L12.1735 8.02005L12.0327 8.22663ZM12.0732 13.932L12.2201 14.1344L12.2253 14.1304L12.0732 13.932ZM6.91102 14.6813H6.66102V14.9313H6.91102V14.6813ZM17.494 17.2636L17.3174 17.0867L17.3173 17.0868L17.494 17.2636ZM16.9209 3.27729L17.087 3.09038L17.0857 3.08926L16.9209 3.27729ZM0.377686 0.88916V0.63916H0.127686V0.88916H0.377686ZM0.377686 29.9262H0.127686V30.1762H0.377686V29.9262ZM7.03627 29.9262V30.1762H7.28627V29.9262H7.03627ZM7.03627 19.9516V19.7016H6.78627V19.9516H7.03627ZM6.91102 7.67249H8.27534V7.17249H6.91102V7.67249ZM8.27534 7.67249C9.53251 7.67249 10.8837 7.746 11.8919 8.43321L12.1735 8.02005C11.0226 7.23554 9.52107 7.17249 8.27534 7.17249V7.67249ZM11.8874 8.43006C12.375 8.77838 13.1944 9.5832 13.1944 11.0582H13.6944C13.6944 9.36663 12.7447 8.42797 12.178 8.0232L11.8874 8.43006ZM13.1944 11.0582C13.1944 12.1542 12.7106 13.1285 11.9211 13.7336L12.2253 14.1304C13.144 13.4263 13.6944 12.3023 13.6944 11.0582H13.1944ZM11.9264 13.7297C10.909 14.4682 9.69701 14.4313 8.63082 14.4313V14.9313C9.65631 14.9313 11.0474 14.9855 12.2201 14.1343L11.9264 13.7297ZM8.63082 14.4313H6.91102V14.9313H8.63082V14.4313ZM7.16102 14.6813V7.42249H6.66102V14.6813H7.16102ZM9.97671 20.2016C13.2566 20.2016 15.8561 19.2545 17.6708 17.4404L17.3173 17.0868C15.6189 18.7847 13.1597 19.7016 9.97671 19.7016V20.2016ZM17.6706 17.4406C19.9027 15.2131 20.2277 12.1625 20.2277 10.5773H19.7277C19.7277 12.1197 19.4068 15.0016 17.3174 17.0867L17.6706 17.4406ZM20.2277 10.5773C20.2277 8.87596 19.826 5.52361 17.087 3.09039L16.7549 3.46419C19.3361 5.75714 19.7277 8.93213 19.7277 10.5773H20.2277ZM17.0857 3.08926C14.8398 1.12119 12.4415 0.63916 9.13218 0.63916V1.13916C12.3865 1.13916 14.6412 1.61202 16.7562 3.46532L17.0857 3.08926ZM9.13218 0.63916H0.377686V1.13916H9.13218V0.63916ZM0.127686 0.88916V29.9262H0.627686V0.88916H0.127686ZM0.377686 30.1762H7.03627V29.6762H0.377686V30.1762ZM7.28627 29.9262V19.9516H6.78627V29.9262H7.28627ZM7.03627 20.2016H9.97671V19.7016H7.03627V20.2016Z" fill="#80949F"/>
</svg>
