<svg width="22" height="31" viewBox="0 0 22 31" fill="none" xmlns="http://www.w3.org/2000/svg">
<path fill-rule="evenodd" clip-rule="evenodd" d="M18.9528 14.6025C17.5051 13.3198 15.4843 12.5763 13.1908 11.8051C11.5567 11.2364 10.6563 10.9232 10.056 10.3759C9.5822 9.97369 9.37095 9.53707 9.37095 8.95998C9.37095 7.69596 10.2299 6.34512 12.6412 6.34512C14.2799 6.34512 15.6519 7.04578 16.7194 8.42683L17.1432 8.97519L20.6595 4.49936L20.3389 4.17828C18.1884 2.02623 15.3546 0.88916 12.1437 0.88916C5.66541 0.88916 2.76553 5.1037 2.76553 9.28063C2.76553 11.522 3.56488 13.3298 5.13642 14.6513C6.54344 15.8572 8.25929 16.5329 9.90516 17.0845L10.0912 17.1461C11.5528 17.6292 13.0643 18.1292 13.9671 18.9372C14.5952 19.5143 14.8751 20.1414 14.8751 20.9705C14.8751 22.8706 13.3788 24.1475 11.1518 24.1475C9.39138 24.1475 7.0733 23.2846 5.84688 20.8634L5.5261 20.2291L1.15552 24.2748L1.41328 24.6394C2.80769 26.6138 5.95425 29.9262 11.3591 29.9262C17.3188 29.9262 21.4814 26.0946 21.4814 20.6089C21.4814 17.4712 20.1049 15.609 18.9528 14.6025Z" fill="#6B7B84"/>
<path d="M18.9528 14.6025C17.5051 13.3198 15.4843 12.5763 13.1908 11.8051C11.5567 11.2364 10.6563 10.9232 10.056 10.3759C9.5822 9.97369 9.37095 9.53707 9.37095 8.95998C9.37095 7.69596 10.2299 6.34512 12.6412 6.34512C14.2799 6.34512 15.6519 7.04578 16.7194 8.42683L17.1432 8.97519L20.6595 4.49936L20.3389 4.17828C18.1884 2.02623 15.3546 0.88916 12.1437 0.88916C5.66541 0.88916 2.76553 5.1037 2.76553 9.28063C2.76553 11.522 3.56488 13.3298 5.13642 14.6513C6.54344 15.8572 8.25929 16.5329 9.90516 17.0845L10.0912 17.1461C11.5528 17.6292 13.0643 18.1292 13.9671 18.9372C14.5952 19.5143 14.8751 20.1414 14.8751 20.9705C14.8751 22.8706 13.3788 24.1475 11.1518 24.1475C9.39138 24.1475 7.0733 23.2846 5.84688 20.8634L5.5261 20.2291L1.15552 24.2748L1.41328 24.6394C2.80769 26.6138 5.95425 29.9262 11.3591 29.9262C17.3188 29.9262 21.4814 26.0946 21.4814 20.6089C21.4814 17.4712 20.1049 15.609 18.9528 14.6025" stroke="#80949F" stroke-width="0.5"/>
</svg>
