<svg width="24" height="31" viewBox="0 0 24 31" fill="none" xmlns="http://www.w3.org/2000/svg">
<path fill-rule="evenodd" clip-rule="evenodd" d="M16.1413 29.9262C18.8801 29.9262 21.1614 29.3941 23.4147 28.2993L23.5702 28.1537V20.3193L22.7271 21.3987C21.1046 23.1716 18.9257 24.1475 16.4606 24.1475C11.869 24.1475 7.25728 21.1796 7.25728 15.5076C7.25728 11.2212 10.4379 6.66577 16.2991 6.66577C17.4686 6.66577 20.3128 6.94227 22.7229 9.50179L23.5702 10.5455V2.74654L23.4215 2.5991C21.1256 1.44851 18.7841 0.88916 16.1134 0.88916C11.5465 0.88916 7.98184 2.0915 5.14359 4.56273C3.34326 6.11149 0.340576 9.58227 0.340576 15.4261C0.340576 19.7468 1.87909 23.1213 5.16663 26.0482C8.22496 28.73 11.616 29.9262 16.1413 29.9262Z" fill="#6B7B84"/>
<path d="M16.1413 29.9262C18.8801 29.9262 21.1614 29.3941 23.4147 28.2993L23.5702 28.1537V20.3193L22.7271 21.3987C21.1046 23.1716 18.9257 24.1475 16.4606 24.1475C11.869 24.1475 7.25728 21.1796 7.25728 15.5076C7.25728 11.2212 10.4379 6.66577 16.2991 6.66577C17.4686 6.66577 20.3128 6.94227 22.7229 9.50179L23.5702 10.5455V2.74654L23.4215 2.5991C21.1256 1.44851 18.7841 0.88916 16.1134 0.88916C11.5465 0.88916 7.98184 2.0915 5.14359 4.56273C3.34326 6.11149 0.340576 9.58227 0.340576 15.4261C0.340576 19.7468 1.87909 23.1213 5.16663 26.0482C8.22496 28.73 11.616 29.9262 16.1413 29.9262" stroke="#80949F" stroke-width="0.5"/>
</svg>
