<?xml version="1.0" encoding="utf-8"?>
<!-- Generator: Adobe Illustrator 26.0.3, SVG Export Plug-In . SVG Version: 6.00 Build 0)  -->
<svg version="1.1" id="Слой_1" xmlns="http://www.w3.org/2000/svg" xmlns:xlink="http://www.w3.org/1999/xlink" x="0px" y="0px"
	 viewBox="0 0 40 40" style="enable-background:new 0 0 40 40;" xml:space="preserve">
<style type="text/css">
	.st0{fill-rule:evenodd;clip-rule:evenodd;fill:#FFFFFF;}
</style>
<path class="st0" d="M28,10.2H12c-1.1,0-2,0.9-2,2v17.6l4-4.9h14c1.1,0,2-0.9,2-2V12.2C30,11.1,29.1,10.2,28,10.2z M21,21h-6
	c-0.6,0-1-0.4-1-1c0-0.5,0.4-1,1-1h6c0.5,0,1,0.4,1,1C22,20.5,21.6,21,21,21z M25,16.1H15c-0.6,0-1-0.4-1-1c0-0.5,0.4-1,1-1h10
	c0.5,0,1,0.4,1,1C26,15.6,25.6,16.1,25,16.1z"/>
</svg>
