<svg width="104" height="16" viewBox="0 0 104 16" fill="none" xmlns="http://www.w3.org/2000/svg">
<path d="M6.44 11.76C6.44 11.92 6.36 12 6.2 12H5.32C5.16 12 5.08 11.92 5.08 11.76V6.16C5.08 5.79733 4.968 5.50933 4.744 5.296C4.53067 5.072 4.24267 4.96 3.88 4.96H3.32C2.84 4.96 2.44 5.12 2.12 5.44C1.8 5.76 1.64 6.16 1.64 6.64V11.76C1.64 11.92 1.56 12 1.4 12H0.52C0.36 12 0.28 11.92 0.28 11.76V4.08C0.28 3.92 0.36 3.84 0.52 3.84H1.4C1.56 3.84 1.64 3.92 1.64 4.08V4.64H1.72C1.80533 4.45867 1.928 4.29867 2.088 4.16C2.22667 4.04267 2.408 3.936 2.632 3.84C2.856 3.73333 3.13867 3.68 3.48 3.68H3.88C4.24267 3.68 4.536 3.73333 4.76 3.84C4.99467 3.936 5.18667 4.04267 5.336 4.16C5.496 4.29867 5.624 4.45867 5.72 4.64H5.8C5.88533 4.45867 6.01333 4.29867 6.184 4.16C6.32267 4.04267 6.50933 3.936 6.744 3.84C6.97867 3.73333 7.27733 3.68 7.64 3.68H8.68C9.52267 3.68 10.1573 3.89333 10.584 4.32C11.0213 4.74667 11.24 5.36 11.24 6.16V11.76C11.24 11.92 11.16 12 11 12H10.12C9.96 12 9.88 11.92 9.88 11.76V6.16C9.88 5.79733 9.768 5.50933 9.544 5.296C9.33067 5.072 9.04267 4.96 8.68 4.96H7.64C7.27733 4.96 6.984 5.072 6.76 5.296C6.54667 5.50933 6.44 5.79733 6.44 6.16V11.76ZM13.2756 9.52C13.2756 7.97333 14.0756 7.2 15.6756 7.2H18.6356V6.16C18.6356 5.79733 18.5236 5.50933 18.2996 5.296C18.0863 5.072 17.7983 4.96 17.4356 4.96H16.3156C15.953 4.96 15.6596 5.072 15.4356 5.296C15.2223 5.50933 15.1156 5.79733 15.1156 6.16C15.1156 6.32 15.0356 6.4 14.8756 6.4H13.9956C13.8356 6.4 13.7556 6.32 13.7556 6.16C13.7556 5.36 13.969 4.74667 14.3956 4.32C14.833 3.89333 15.473 3.68 16.3156 3.68H17.4356C18.2783 3.68 18.913 3.89333 19.3396 4.32C19.777 4.74667 19.9956 5.36 19.9956 6.16V11.76C19.9956 11.92 19.9156 12 19.7556 12H18.8756C18.7156 12 18.6356 11.92 18.6356 11.76V11.2H18.5556C18.4703 11.3813 18.3476 11.5413 18.1876 11.68C18.049 11.7973 17.8676 11.904 17.6436 12C17.4196 12.1067 17.137 12.16 16.7956 12.16H15.6756C14.0756 12.16 13.2756 11.3867 13.2756 9.84V9.52ZM14.6356 9.84C14.6356 10.16 14.7263 10.416 14.9076 10.608C15.0996 10.7893 15.3556 10.88 15.6756 10.88H16.9556C17.4356 10.88 17.8356 10.72 18.1556 10.4C18.4756 10.08 18.6356 9.68 18.6356 9.2V8.48H15.6756C15.3556 8.48 15.0996 8.576 14.9076 8.768C14.7263 8.94933 14.6356 9.2 14.6356 9.52V9.84ZM23.4688 0.799999C23.6288 0.799999 23.7088 0.879999 23.7088 1.04V1.92C23.7088 2.08 23.6288 2.16 23.4688 2.16H22.5888C22.4288 2.16 22.3488 2.08 22.3488 1.92V1.04C22.3488 0.879999 22.4288 0.799999 22.5888 0.799999H23.4688ZM22.5888 12C22.4288 12 22.3488 11.92 22.3488 11.76V4.08C22.3488 3.92 22.4288 3.84 22.5888 3.84H23.4688C23.6288 3.84 23.7088 3.92 23.7088 4.08V11.76C23.7088 11.92 23.6288 12 23.4688 12H22.5888ZM26.3106 12C26.1506 12 26.0706 11.92 26.0706 11.76V1.04C26.0706 0.879999 26.1506 0.799999 26.3106 0.799999H27.1906C27.3506 0.799999 27.4306 0.879999 27.4306 1.04V11.76C27.4306 11.92 27.3506 12 27.1906 12H26.3106ZM35.0725 9.2C35.0725 9.57333 35.2592 9.76 35.6325 9.76H37.0725C37.5525 9.76 37.7925 9.52 37.7925 9.04V6.64C37.7925 6.16 37.5525 5.92 37.0725 5.92H35.6325C35.2592 5.92 35.0725 6.10667 35.0725 6.48V9.2ZM41.6325 3.84C41.6325 2.93333 41.1792 2.48 40.2725 2.48H32.7525C31.8458 2.48 31.3925 2.93333 31.3925 3.84V11.84C31.3925 12.7467 31.8458 13.2 32.7525 13.2H41.4725C41.6325 13.2 41.7125 13.28 41.7125 13.44V14.32C41.7125 14.48 41.6325 14.56 41.4725 14.56H32.7525C31.8245 14.56 31.1258 14.3253 30.6565 13.856C30.1872 13.3973 29.9525 12.7253 29.9525 11.84V3.84C29.9525 2.95467 30.1872 2.28267 30.6565 1.824C31.1258 1.35467 31.8245 1.12 32.7525 1.12H40.2725C41.2005 1.12 41.8992 1.35467 42.3685 1.824C42.8378 2.28267 43.0725 2.95467 43.0725 3.84V8.32C43.0725 9.248 42.8485 9.936 42.4005 10.384C41.9525 10.8213 41.2432 11.04 40.2725 11.04H38.0325C37.8725 11.04 37.7925 10.96 37.7925 10.8V10.56H37.7125C37.6592 10.6773 37.5845 10.784 37.4885 10.88C37.4032 10.9653 37.2965 11.04 37.1685 11.104C37.0405 11.168 36.8752 11.2 36.6725 11.2H35.6325C34.9498 11.2 34.4325 11.0293 34.0805 10.688C33.7285 10.336 33.5525 9.84 33.5525 9.2V6.48C33.5525 5.84 33.7285 5.34933 34.0805 5.008C34.4325 4.656 34.9498 4.48 35.6325 4.48H36.6725C36.8752 4.48 37.0405 4.512 37.1685 4.576C37.2965 4.64 37.4032 4.71467 37.4885 4.8C37.5845 4.896 37.6592 5.00267 37.7125 5.12H37.7925V4.88C37.7925 4.72 37.8725 4.64 38.0325 4.64H39.0725C39.2325 4.64 39.3125 4.72 39.3125 4.88V9.68H40.2725C41.1792 9.68 41.6325 9.22667 41.6325 8.32V3.84ZM46.6363 9.68C46.6363 10.0427 46.7429 10.336 46.9563 10.56C47.1803 10.7733 47.4736 10.88 47.8363 10.88H49.6763C50.0389 10.88 50.3269 10.7733 50.5403 10.56C50.7643 10.336 50.8763 10.0427 50.8763 9.68V9.28C50.8763 9.12 50.9563 9.04 51.1163 9.04H51.9963C52.1562 9.04 52.2362 9.12 52.2362 9.28V9.68C52.2362 10.48 52.0176 11.0933 51.5803 11.52C51.1536 11.9467 50.5189 12.16 49.6763 12.16H47.8363C46.9936 12.16 46.3536 11.9467 45.9163 11.52C45.4896 11.0933 45.2763 10.48 45.2763 9.68V6.16C45.2763 5.36 45.4896 4.74667 45.9163 4.32C46.3536 3.89333 46.9936 3.68 47.8363 3.68H49.6763C50.5189 3.68 51.1536 3.89333 51.5803 4.32C52.0176 4.74667 52.2362 5.36 52.2362 6.16V6.56C52.2362 6.72 52.1562 6.8 51.9963 6.8H51.1163C50.9563 6.8 50.8763 6.72 50.8763 6.56V6.16C50.8763 5.79733 50.7643 5.50933 50.5403 5.296C50.3269 5.072 50.0389 4.96 49.6763 4.96H47.8363C47.4736 4.96 47.1803 5.072 46.9563 5.296C46.7429 5.50933 46.6363 5.79733 46.6363 6.16V9.68ZM58.6831 10.72C59.0458 10.72 59.3338 10.6133 59.5471 10.4C59.7711 10.176 59.8831 9.88267 59.8831 9.52V6.16C59.8831 5.79733 59.7711 5.50933 59.5471 5.296C59.3338 5.072 59.0458 4.96 58.6831 4.96H57.3231C56.8431 4.96 56.4431 5.12 56.1231 5.44C55.8031 5.76 55.6431 6.16 55.6431 6.64V10.72H58.6831ZM55.6431 12V14.8C55.6431 14.96 55.5631 15.04 55.4031 15.04H54.5231C54.3631 15.04 54.2831 14.96 54.2831 14.8V4.08C54.2831 3.92 54.3631 3.84 54.5231 3.84H55.4031C55.5631 3.84 55.6431 3.92 55.6431 4.08V4.64H55.7231C55.8085 4.45867 55.9311 4.29867 56.0911 4.16C56.2298 4.04267 56.4111 3.936 56.6351 3.84C56.8591 3.73333 57.1418 3.68 57.4831 3.68H58.6831C59.5258 3.68 60.1605 3.89333 60.5871 4.32C61.0245 4.74667 61.2431 5.36 61.2431 6.16V9.52C61.2431 10.32 61.0245 10.9333 60.5871 11.36C60.1605 11.7867 59.5258 12 58.6831 12H55.6431ZM63.1225 6C63.1225 4.45333 63.9225 3.68 65.5225 3.68H67.1225C67.9652 3.68 68.5998 3.89333 69.0265 4.32C69.4638 4.74667 69.6825 5.36 69.6825 6.16V6.32C69.6825 6.48 69.6025 6.56 69.4425 6.56H68.5625C68.4025 6.56 68.3225 6.48 68.3225 6.32V6.16C68.3225 5.79733 68.2105 5.50933 67.9865 5.296C67.7732 5.072 67.4852 4.96 67.1225 4.96H65.5225C65.2025 4.96 64.9465 5.056 64.7545 5.248C64.5732 5.42933 64.4825 5.68 64.4825 6V6.08C64.4825 6.24 64.5358 6.37333 64.6425 6.48C64.7492 6.58667 64.8825 6.66667 65.0425 6.72L68.5625 7.84C68.9252 7.95733 69.2292 8.16 69.4745 8.448C69.7198 8.736 69.8425 9.12 69.8425 9.6V9.84C69.8425 11.3867 69.0425 12.16 67.4425 12.16H65.5225C64.6798 12.16 64.0398 11.9467 63.6025 11.52C63.1758 11.0933 62.9625 10.48 62.9625 9.68V9.52C62.9625 9.36 63.0425 9.28 63.2025 9.28H64.0825C64.2425 9.28 64.3225 9.36 64.3225 9.52V9.68C64.3225 10.0427 64.4292 10.336 64.6425 10.56C64.8665 10.7733 65.1598 10.88 65.5225 10.88H67.4425C67.7625 10.88 68.0132 10.7893 68.1945 10.608C68.3865 10.416 68.4825 10.16 68.4825 9.84V9.68C68.4825 9.52 68.4292 9.38667 68.3225 9.28C68.2158 9.17333 68.0825 9.09333 67.9225 9.04L64.4025 7.92C64.0398 7.80267 63.7358 7.6 63.4905 7.312C63.2452 7.024 63.1225 6.64 63.1225 6.16V6ZM71.4831 12C71.3231 12 71.2431 11.92 71.2431 11.76V10.8C71.2431 10.64 71.3231 10.56 71.4831 10.56H72.4431C72.6031 10.56 72.6831 10.64 72.6831 10.8V11.76C72.6831 11.92 72.6031 12 72.4431 12H71.4831ZM75.6019 9.68C75.6019 10.0427 75.7085 10.336 75.9219 10.56C76.1459 10.7733 76.4392 10.88 76.8019 10.88H78.6419C79.0045 10.88 79.2925 10.7733 79.5059 10.56C79.7299 10.336 79.8419 10.0427 79.8419 9.68V9.28C79.8419 9.12 79.9219 9.04 80.0819 9.04H80.9619C81.1219 9.04 81.2019 9.12 81.2019 9.28V9.68C81.2019 10.48 80.9832 11.0933 80.5459 11.52C80.1192 11.9467 79.4845 12.16 78.6419 12.16H76.8019C75.9592 12.16 75.3192 11.9467 74.8819 11.52C74.4552 11.0933 74.2419 10.48 74.2419 9.68V6.16C74.2419 5.36 74.4552 4.74667 74.8819 4.32C75.3192 3.89333 75.9592 3.68 76.8019 3.68H78.6419C79.4845 3.68 80.1192 3.89333 80.5459 4.32C80.9832 4.74667 81.2019 5.36 81.2019 6.16V6.56C81.2019 6.72 81.1219 6.8 80.9619 6.8H80.0819C79.9219 6.8 79.8419 6.72 79.8419 6.56V6.16C79.8419 5.79733 79.7299 5.50933 79.5059 5.296C79.2925 5.072 79.0045 4.96 78.6419 4.96H76.8019C76.4392 4.96 76.1459 5.072 75.9219 5.296C75.7085 5.50933 75.6019 5.79733 75.6019 6.16V9.68ZM88.8488 6.16C88.8488 5.79733 88.7368 5.50933 88.5128 5.296C88.2994 5.072 88.0114 4.96 87.6488 4.96H85.6488C85.2861 4.96 84.9928 5.072 84.7688 5.296C84.5554 5.50933 84.4488 5.79733 84.4488 6.16V9.68C84.4488 10.0427 84.5554 10.336 84.7688 10.56C84.9928 10.7733 85.2861 10.88 85.6488 10.88H87.6488C88.0114 10.88 88.2994 10.7733 88.5128 10.56C88.7368 10.336 88.8488 10.0427 88.8488 9.68V6.16ZM90.2088 9.68C90.2088 10.48 89.9901 11.0933 89.5528 11.52C89.1261 11.9467 88.4914 12.16 87.6488 12.16H85.6488C84.8061 12.16 84.1661 11.9467 83.7288 11.52C83.3021 11.0933 83.0888 10.48 83.0888 9.68V6.16C83.0888 5.36 83.3021 4.74667 83.7288 4.32C84.1661 3.89333 84.8061 3.68 85.6488 3.68H87.6488C88.4914 3.68 89.1261 3.89333 89.5528 4.32C89.9901 4.74667 90.2088 5.36 90.2088 6.16V9.68ZM98.5681 11.76C98.5681 11.92 98.4881 12 98.3281 12H97.4481C97.2881 12 97.2081 11.92 97.2081 11.76V6.16C97.2081 5.79733 97.0961 5.50933 96.8721 5.296C96.6588 5.072 96.3708 4.96 96.0081 4.96H95.4481C94.9681 4.96 94.5681 5.12 94.2481 5.44C93.9281 5.76 93.7681 6.16 93.7681 6.64V11.76C93.7681 11.92 93.6881 12 93.5281 12H92.6481C92.4881 12 92.4081 11.92 92.4081 11.76V4.08C92.4081 3.92 92.4881 3.84 92.6481 3.84H93.5281C93.6881 3.84 93.7681 3.92 93.7681 4.08V4.64H93.8481C93.9335 4.45867 94.0561 4.29867 94.2161 4.16C94.3548 4.04267 94.5361 3.936 94.7601 3.84C94.9841 3.73333 95.2668 3.68 95.6081 3.68H96.0081C96.3708 3.68 96.6641 3.73333 96.8881 3.84C97.1228 3.936 97.3148 4.04267 97.4641 4.16C97.6241 4.29867 97.7521 4.45867 97.8481 4.64H97.9281C98.0135 4.45867 98.1415 4.29867 98.3121 4.16C98.4508 4.04267 98.6375 3.936 98.8721 3.84C99.1068 3.73333 99.4055 3.68 99.7681 3.68H100.808C101.651 3.68 102.285 3.89333 102.712 4.32C103.149 4.74667 103.368 5.36 103.368 6.16V11.76C103.368 11.92 103.288 12 103.128 12H102.248C102.088 12 102.008 11.92 102.008 11.76V6.16C102.008 5.79733 101.896 5.50933 101.672 5.296C101.459 5.072 101.171 4.96 100.808 4.96H99.7681C99.4055 4.96 99.1121 5.072 98.8881 5.296C98.6748 5.50933 98.5681 5.79733 98.5681 6.16V11.76Z" fill="#1B1C21"/>
</svg>
